<svg width="46" height="46" viewBox="0 0 46 46" xmlns="http://www.w3.org/2000/svg"><title>chrome</title><g transform="translate(1 1)" fill="#B3B3B3" fill-rule="evenodd"><path d="M21.924 12.157v-.025h19.685A21.915 21.915 0 0 0 21.975 0C14.853 0 8.52 3.383 4.502 8.647l7.63 13.2c.05-5.34 4.425-9.69 9.792-9.69z"/><circle cx="22.025" cy="22" r="8.215"/><path d="M26.73 13.429c2.976 1.679 5.011 4.883 5.011 8.546a9.685 9.685 0 0 1-2.06 6.002l-9.182 15.921c.484.026.992.051 1.501.051 12.132 0 21.975-9.843 21.975-21.974 0-3.027-.61-5.926-1.73-8.546H26.731z"/><path d="M21.924 31.766c-4.07 0-7.554-2.467-9.055-6.002L3.662 9.817A21.877 21.877 0 0 0 0 21.975C0 33.14 8.317 42.347 19.075 43.77l7.63-13.225a9.961 9.961 0 0 1-4.781 1.22z"/></g></svg>