<svg width="41" height="46" viewBox="0 0 41 46" xmlns="http://www.w3.org/2000/svg"><title>linux</title><path d="M19.852 11.502c0 .142-.144.142-.144.142h-.144c-.144 0-.144-.142-.288-.284 0 0-.144-.142-.144-.284s0-.142.144-.142l.288.142c.144.142.288.284.288.426m-2.591-1.42c0-.71-.288-1.135-.72-1.135 0 0 0 .142-.144.142v.284h.432c0 .284.144.426.144.71h.288m5.039-.71c.288 0 .432.284.575.71h.288c-.144-.142-.144-.284-.144-.426 0-.142 0-.284-.144-.426-.143-.142-.287-.284-.431-.284 0 0-.144.142-.288.142 0 .142.144.142.144.284m-4.32 2.27c-.143 0-.143 0-.143-.141 0-.142 0-.284.144-.426.287 0 .431-.142.431-.142.144 0 .144.142.144.142 0 .142-.144.284-.431.568h-.144m-1.584-.142c-.576-.284-.72-.71-.72-1.42 0-.425 0-.71.288-.993a.793.793 0 0 1 .72-.426c.288 0 .432.142.72.426.144.426.288.852.288 1.277v.284h.144v-.142c.144 0 .144-.284.144-.851 0-.426 0-.852-.288-1.277-.288-.426-.576-.71-1.152-.71-.432 0-.864.284-1.008.71-.288.567-.345.993-.345 1.703 0 .567.201 1.135.777 1.702.144-.141.288-.141.432-.283m17.996 20.01c.144 0 .144-.057.144-.185 0-.312-.144-.681-.576-1.093-.432-.425-1.152-.695-2.015-.809-.144-.014-.288-.014-.288-.014-.144-.028-.144-.028-.288-.028a7.97 7.97 0 0 1-.576-.071c.432-1.32.576-2.484.576-3.505 0-1.42-.288-2.413-.864-3.264-.576-.852-1.152-1.278-1.872-1.42-.144.142-.144.142-.144.284.72.284 1.44.852 1.872 1.703.432.994.576 1.845.576 2.839 0 .794-.144 1.972-.72 3.476-.576.227-1.152.753-1.584 1.576 0 .127 0 .198.144.198 0 0 .144-.127.288-.369.288-.24.432-.482.72-.723.432-.242.72-.37 1.152-.37.72 0 1.44.1 1.871.299.576.184.864.383 1.008.61.144.213.288.411.432.596 0 .184.144.27.144.27M21.148 10.934c-.144-.142-.144-.426-.144-.71 0-.567 0-.851.288-1.277.288-.284.576-.426.864-.426.432 0 .72.284 1.007.568.144.426.288.71.288 1.135 0 .71-.288 1.136-.863 1.278 0 0 .144.142.287.142.288 0 .432.141.72.283.144-.851.288-1.419.288-2.128 0-.852-.144-1.42-.432-1.845-.432-.426-.863-.568-1.44-.568-.431 0-.863.142-1.295.426-.288.426-.432.71-.432 1.135 0 .71.144 1.277.432 1.845.144 0 .288.142.432.142m1.727 2.27c-1.871 1.278-3.31 1.846-4.463 1.846-1.007 0-2.015-.426-2.879-1.136.144.284.288.568.432.71l.864.851c.576.568 1.296.852 2.015.852 1.008 0 2.16-.568 3.6-1.561l1.295-.852c.288-.284.576-.567.576-.993 0-.142 0-.284-.144-.284-.144-.284-.864-.71-2.303-1.135-1.296-.568-2.304-.852-2.88-.852-.432 0-1.151.284-2.16.852-.863.567-1.439 1.135-1.439 1.703 0 0 .144.142.288.425.864.71 1.728 1.136 2.591 1.136 1.152 0 2.592-.568 4.464-1.987v.284c.143 0 .143.142.143.142m3.312 28.666c.576 1.067 1.583 1.604 2.735 1.604.288 0 .576-.043.864-.128.288-.057.576-.156.72-.27.144-.099.288-.198.432-.312.288-.099.288-.17.432-.24l2.447-2.087c.576-.453 1.152-.849 1.872-1.192.576-.34 1.151-.568 1.44-.696.431-.113.72-.283 1.007-.51.144-.213.288-.483.288-.823 0-.412-.288-.724-.576-.951a2.941 2.941 0 0 0-.864-.483c-.288-.1-.575-.326-1.007-.71a3.803 3.803 0 0 1-.72-1.546l-.144-.823c-.144-.384-.144-.667-.288-.823 0-.043 0-.057-.144-.057s-.432.127-.576.369c-.288.241-.576.51-.864.794-.144.284-.576.54-.864.781-.431.241-.863.369-1.151.369-1.152 0-1.728-.312-2.16-.922-.288-.455-.432-.98-.576-1.576-.288-.241-.432-.369-.72-.369-.72 0-1.007.738-1.007 2.228v4.414c0 .128-.144.411-.144.851-.144.44-.144.94-.144 1.505l-.288 1.575v.024m-20.876-.75c1.34.192 2.88.605 4.622 1.235 1.742.625 2.807.951 3.196.951 1.008 0 1.843-.44 2.534-1.29.144-.275.144-.599.144-.97 0-1.342-.821-3.037-2.462-5.095l-.98-1.292c-.2-.27-.446-.68-.762-1.234a12.17 12.17 0 0 0-.792-1.278c-.187-.326-.49-.652-.878-.979a2.972 2.972 0 0 0-1.282-.653c-.604.114-1.022.313-1.223.582-.202.27-.317.568-.346.88-.043.298-.13.497-.273.596-.144.085-.39.156-.72.227-.072 0-.202 0-.389.014h-.389c-.763 0-1.281.086-1.555.228-.36.411-.547.88-.547 1.376 0 .227.058.61.173 1.15.115.525.173.95.173 1.248 0 .582-.173 1.164-.533 1.746-.36.61-.547 1.064-.547 1.388.144.55 1.094.938 2.836 1.165m4.794-12.9c0-.98.26-2.058.792-3.335.519-1.277 1.037-2.129 1.54-2.696-.028-.142-.1-.142-.215-.142l-.144-.142c-.418.426-.922 1.419-1.526 2.838-.605 1.277-.922 2.455-.922 3.32a3.2 3.2 0 0 0 .447 1.676c.316.468 1.08 1.149 2.289 2.015l1.526.979c1.627 1.39 2.49 2.356 2.49 2.923 0 .298-.143.596-.575.923-.288.34-.677.51-1.008.51-.029 0-.043.03-.043.1 0 .014.144.298.446.852.605.808 1.9 1.206 3.628 1.206 3.167 0 5.615-1.277 7.486-3.832 0-.71 0-1.15-.144-1.334v-.525c0-.922.144-1.618.432-2.072.288-.454.576-.667 1.008-.667.288 0 .576.1.864.312.144-1.092.144-2.043.144-2.895 0-1.291 0-2.356-.288-3.349a7.407 7.407 0 0 0-.72-2.129l-.864-1.277c-.288-.426-.432-.851-.72-1.277-.144-.568-.288-.994-.288-1.703-.431-.71-.72-1.42-1.151-2.129-.288-.71-.576-1.419-.864-1.987l-1.296.994c-1.44.993-2.591 1.419-3.599 1.419-.864 0-1.584-.142-2.016-.71l-.863-.71c0 .427-.144.994-.432 1.562l-.907 1.703c-.403.993-.62 1.56-.663 1.987-.057.283-.1.567-.13.567l-1.079 2.129c-1.166 2.129-1.756 4.101-1.756 5.733 0 .327.028.667.086 1.008-.648-.44-.965-1.05-.965-1.845m10.309 13.425c-1.872 0-3.312.25-4.32.745v-.042c-.72.851-1.526 1.291-2.648 1.291-.706 0-1.814-.27-3.312-.809-1.511-.51-2.85-.902-4.016-1.16a8.733 8.733 0 0 0-.792-.147 30.46 30.46 0 0 1-1.109-.194 8.447 8.447 0 0 1-1.022-.291c-.36-.112-.648-.259-.864-.436-.199-.179-.296-.38-.296-.606 0-.227.049-.47.146-.728a6.52 6.52 0 0 1 .294-.454c.1-.156.187-.298.245-.44.086-.128.144-.255.201-.397.058-.128.116-.256.144-.412.03-.142.058-.284.058-.426 0-.142-.058-.567-.173-1.32-.115-.737-.173-1.206-.173-1.404 0-.625.144-1.122.461-1.476.317-.355.62-.54.936-.54H5.83c.13 0 .33-.07.633-.24.1-.228.187-.412.245-.583.072-.17.1-.298.13-.354a4.57 4.57 0 0 1 .086-.242c.057-.1.13-.213.23-.326-.115-.142-.173-.327-.173-.554 0-.156 0-.298.03-.383 0-.51.244-1.234.762-2.185l.504-.894c.418-.767.734-1.334.965-1.902.244-.568.504-1.42.791-2.554.23-.994.778-1.987 1.642-2.98l1.08-1.278c.748-.851 1.238-1.56 1.511-2.129a4.518 4.518 0 0 0 .418-1.844c0-.284-.072-1.136-.23-2.555a41.52 41.52 0 0 1-.217-4.115c0-.994.087-1.703.274-2.413.187-.71.518-1.42 1.008-1.987.432-.567 1.007-1.135 1.871-1.419.864-.284 1.872-.426 3.024-.426.432 0 .863 0 1.295.142.432 0 1.008.142 1.728.426.576.284 1.152.568 1.584.993.575.426 1.007 1.136 1.44 1.845.287.852.575 1.703.72 2.839.143.71.143 1.419.287 2.412 0 .852.144 1.42.144 1.845.144.426.144.993.288 1.703.144.568.288 1.135.576 1.561.288.568.576 1.135 1.008 1.703.432.71 1.007 1.42 1.583 2.27 1.296 1.42 2.304 2.98 2.88 4.542.72 1.42 1.151 3.264 1.151 5.237 0 .979-.144 1.93-.431 2.852.287 0 .431.114.575.312.144.199.288.625.432 1.292l.144 1.05c.144.312.288.61.72.865.288.256.576.469 1.008.64.288.141.72.34 1.008.595.288.284.432.582.432.894 0 .483-.144.837-.432 1.093a2.26 2.26 0 0 1-1.008.61 74.7 74.7 0 0 1-1.728.826c-.72.42-1.44.93-2.16 1.533l-1.439 1.207a7.968 7.968 0 0 1-1.584 1.193c-.431.255-1.007.383-1.583.383l-1.008-.114c-1.152-.298-1.872-.865-2.304-1.731-2.303-.275-4.175-.412-5.326-.412" fill="#B3B3B3" fill-rule="evenodd"/></svg>