<svg width="26" height="30" viewBox="0 0 26 30" xmlns="http://www.w3.org/2000/svg"><title>fi-social-android</title><path d="M17.163 2.742l1.292-2.36a.257.257 0 1 0-.45-.248L16.7 2.517a8.912 8.912 0 0 0-3.627-.76 8.881 8.881 0 0 0-3.62.758L8.145.137a.255.255 0 0 0-.348-.103.254.254 0 0 0-.102.348L8.988 2.74c-2.54 1.31-4.256 3.805-4.255 6.67l16.679-.002c0-2.864-1.712-5.354-4.25-6.666zM9.278 6.388a.7.7 0 1 1 .005-1.398.7.7 0 0 1-.005 1.398zm7.595-.001a.699.699 0 1 1-.001-1.397.699.699 0 0 1 .001 1.397zm8.9 5.166a1.851 1.851 0 1 0-3.703 0v7.754a1.85 1.85 0 0 0 1.853 1.851 1.85 1.85 0 0 0 1.85-1.851v-7.754zm-4.418-1.503l-16.553.003.002 12.016c0 .315.08.608.21.872a1.967 1.967 0 0 0 1.766 1.105h1.345l.002 4.102a1.852 1.852 0 0 0 3.702 0v-4.103h2.499v4.103a1.856 1.856 0 0 0 1.852 1.85 1.852 1.852 0 0 0 1.852-1.852v-4.101h1.35c.37 0 .711-.109 1.008-.286a1.97 1.97 0 0 0 .968-1.692l-.003-12.017zM2.231 9.703c-1.023 0-1.851.83-1.851 1.852v7.754a1.85 1.85 0 0 0 .833 1.545 1.847 1.847 0 0 0 2.87-1.545v-7.754c0-1.022-.83-1.852-1.852-1.852z" fill="#748598" fill-rule="evenodd"/></svg>