<svg width="26" height="30" viewBox="0 0 26 30" xmlns="http://www.w3.org/2000/svg"><title>fi-social-apple</title><g fill="#748598" fill-rule="evenodd"><path d="M24.832 9.941c-1.527-1.903-3.67-3.004-5.693-3.004-2.676 0-3.807 1.271-5.664 1.271-1.914 0-3.369-1.27-5.684-1.27-2.273 0-4.69 1.382-6.223 3.742C-.59 14-.224 20.244 3.273 25.566 4.524 27.47 6.194 29.61 8.38 29.63c1.94.017 2.49-1.239 5.124-1.253 2.634-.015 3.132 1.266 5.073 1.248 2.184-.02 3.946-2.39 5.196-4.294.896-1.363 1.23-2.052 1.925-3.593-5.056-1.91-5.868-9.054-.865-11.797z"/><path d="M17.109 4.81C18.08 3.563 18.819 1.8 18.55 0c-1.588.11-3.445 1.12-4.53 2.437-.984 1.196-1.797 2.969-1.481 4.692 1.734.054 3.528-.982 4.569-2.319z"/></g></svg>