<svg width="44" height="44" viewBox="0 0 44 44" xmlns="http://www.w3.org/2000/svg"><title>icon-globe</title><g transform="translate(1 1)" fill="none" fill-rule="evenodd"><circle stroke="#3B5062" stroke-width="2" cx="21.2" cy="20.9" r="20.3"/><path d="M.9 20.9h40.6M21.2.6v40.7m-.1-.2c-6.5-4.4-10.8-11.9-10.8-20.3S14.5 5 21 .6m.3 40.5c6.5-4.4 10.8-11.9 10.8-20.3S27.9 5 21.5.6" stroke="#3B5062" stroke-width="2"/><path d="M34.4 5.6c-3 4-7.8 6.5-13.1 6.5-5.4 0-10.2-2.6-13.2-6.6M34.4 37c-3-4-7.8-6.5-13.1-6.5-5.4 0-10.2 2.6-13.2 6.6" stroke="#3B5062" stroke-width="2"/><g transform="translate(20 22)"><circle stroke="#3B5062" stroke-width="2" fill="#FFF" cx="10.3" cy="9.9" r="9.4"/><path d="M4.3 12.1c0 2.5 1.1 4.8 2.8 6.4.9.3 1.9.4 2.9.4 5.2 0 9.4-4.2 9.4-9.4 0-1.9-.6-3.6-1.5-5.1-1.4-.8-2.9-1.3-4.6-1.3-5 .1-9 4.1-9 9z" fill="#D0D7DD"/><circle stroke="#3B5062" stroke-width="2" cx="10.3" cy="9.9" r="9.4"/></g><path d="M29.907 36.277c-.584-.048-1.057-.138-1.422-.27a8.228 8.228 0 0 1-.81-.33l.517-1.38c.28.136.613.26 1.002.372.388.112.797.168 1.23.168.488 0 .821-.066 1.002-.198a.652.652 0 0 0 .27-.558.687.687 0 0 0-.109-.39 1.056 1.056 0 0 0-.311-.294 3.087 3.087 0 0 0-.517-.258 17.475 17.475 0 0 0-.72-.27 10.126 10.126 0 0 1-.774-.318 3.126 3.126 0 0 1-.684-.426 1.913 1.913 0 0 1-.491-.618c-.125-.244-.186-.538-.186-.882 0-.264.037-.518.113-.762a2.02 2.02 0 0 1 .355-.666c.16-.2.367-.37.623-.51.257-.14.56-.242.912-.306v-1.296h1.512v1.248c.417.04.774.1 1.074.18.3.08.538.16.715.24l-.372 1.44a5.536 5.536 0 0 0-.918-.288 4.888 4.888 0 0 0-1.098-.12c-.385 0-.66.064-.829.192a.604.604 0 0 0-.252.504.66.66 0 0 0 .078.33.721.721 0 0 0 .247.246c.112.072.25.142.413.21.165.068.362.142.595.222.352.128.677.268.978.42.3.152.56.326.78.522.22.196.391.426.516.69.124.264.186.572.186.924 0 .24-.036.478-.108.714a1.85 1.85 0 0 1-.36.654 2.2 2.2 0 0 1-.654.516 3.17 3.17 0 0 1-.99.312v1.464h-1.513v-1.428z" fill="#3B5062"/></g></svg>