<svg width="43" height="41" viewBox="0 0 43 41" xmlns="http://www.w3.org/2000/svg"><title>Group Copy 10</title><g fill="none" fill-rule="evenodd"><path d="M.003 6.895V36.47c0 2.206 1.782 4.02 3.981 4.02h35.032c2.198 0 3.969-1.814 3.969-4.02V6.895H.003" fill="#E0E9F2"/><path d="M15.168.501H27.82v3.173H15.168V.5z" fill="#9BA6B0"/><path d="M12.032 3.698v3.197h3.16V.501l-3.16 3.197m15.776 3.197h3.16V3.698L27.808.501v6.394" fill="#D0D9E3"/><path d="M.003 6.834h42.994V23.68H.003V6.834z" fill="#D0D9E3"/><path d="M37.58 28.791H21.5l6.265 11.7H39.24c.19-1.052.294-2.159.294-3.265 0-2.95-.708-5.973-1.955-8.435" fill="#FAC63E"/><path d="M6.83 26.63c-2.076 2.95-3.365 6.711-3.365 10.596 0 1.106.105 2.213.294 3.265H14.21L6.83 26.63" fill="#01A158"/><path d="M27.765 40.499L21.5 29.005h16.08c-2.98-5.88-9.059-9.884-16.08-9.884-6.09 0-11.52 3.033-14.785 7.674l7.348 13.704h13.702" fill="#DA4337"/><path d="M28.995 40.49a8.296 8.296 0 0 0 .668-3.264c0-4.519-3.662-8.195-8.163-8.195s-8.163 3.676-8.163 8.195c0 1.15.24 2.27.668 3.265h14.99" fill="#FFF"/><path d="M27.306 40.49a6.752 6.752 0 0 0 .838-3.264c0-3.684-2.974-6.67-6.644-6.67s-6.644 2.986-6.644 6.67c0 1.177.306 2.305.838 3.265h11.612" fill="#567FBF"/></g></svg>