<svg width="18" height="17" viewBox="0 0 18 17" xmlns="http://www.w3.org/2000/svg"><title>fi-social-github</title><path d="M8.703.052a8.703 8.703 0 0 0-2.751 16.962c.436.08.594-.188.594-.42 0-.205-.008-.752-.011-1.48-2.421.527-2.932-1.166-2.932-1.166-.396-1.006-.967-1.273-.967-1.273-.79-.54.06-.53.06-.53.874.063 1.333.898 1.333.898.777 1.33 2.038.945 2.533.723.08-.563.304-.946.553-1.164-1.933-.22-3.964-.966-3.964-4.301 0-.95.339-1.728.895-2.336-.089-.22-.388-1.104.086-2.303 0 0 .73-.234 2.393.893a8.276 8.276 0 0 1 2.18-.294c.738.003 1.483.1 2.178.294 1.662-1.127 2.391-.893 2.391-.893.475 1.199.176 2.084.087 2.303.558.608.894 1.385.894 2.336 0 3.343-2.034 4.079-3.973 4.294.312.269.59.8.59 1.613 0 1.163-.01 2.101-.01 2.387 0 .233.156.504.598.418A8.705 8.705 0 0 0 8.703.053z" fill="#8C9AAA" fill-rule="evenodd"/></svg>