<svg xmlns="http://www.w3.org/2000/svg" viewBox="0 0 47.1 46.3"><path fill="none" stroke="#3B5062" stroke-width="2" stroke-miterlimit="10" d="M45.6 4.3H28V26h6.6l7.4 6v-6h3.6zm-13.1 7.5h10m-10 6h7M2 4.3h17.6V26H13l-7.4 6v-6H2zm4.5 7.5h10m-10 6h7"/><path fill="#FFF" stroke="#3B5062" stroke-width="2" stroke-miterlimit="10" d="M32.6 15.3H15V37h6.6l7.4 6v-6h3.6z"/><path fill="#D0D7DD" d="M18 19.7V37h3.6l7.4 6v-6h3.6V19.7z"/><path fill="none" stroke="#3B5062" stroke-width="2" stroke-miterlimit="10" d="M19.5 22.8h10m-10 6h7m6.1-13.5H15V37h6.6l7.4 6v-6h3.6z"/></svg>