<svg width="170" height="169" viewBox="0 0 170 169" xmlns="http://www.w3.org/2000/svg"><title>Imported Layers</title><g fill="none" fill-rule="evenodd"><path d="M108.526 116.471c-6.277 3.884-13.918 6.172-22.168 6.172-8.029 0-15.485-2.16-21.665-5.856a51.54 51.54 0 0 0-17.598 13.907 64.191 64.191 0 0 0 39.864 13.8c15.049 0 28.894-5.157 39.863-13.8a51.515 51.515 0 0 0-18.296-14.223" fill="#E7EBEB"/><path d="M169.599 84.594c0-46.512-37.841-84.352-84.352-84.352C38.735.242.894 38.082.894 84.594c0 26.843 12.62 50.78 32.221 66.239l-.031.101 1.974 1.463c12.179 9.029 26.274 14.493 41.193 16.064.287.03.575.057.864.085 1.034.098 2.073.177 3.115.238.343.02.685.044 1.029.061 1.325.061 2.653.101 3.988.101 1.358 0 2.709-.04 4.056-.103.318-.015.635-.04.952-.059a83.261 83.261 0 0 0 3.988-.323c15.708-1.646 30.44-7.589 43.03-17.466l1.933-1.517-.027-.085c18.574-15.485 30.42-38.782 30.42-64.799zm-76.215 76.921l-.568.056a77.9 77.9 0 0 1-3.035.231c-.288.017-.574.037-.862.051a78.484 78.484 0 0 1-3.672.093c-1.214 0-2.419-.037-3.618-.092-.301-.014-.601-.033-.901-.051a77.818 77.818 0 0 1-2.995-.228c-.195-.019-.391-.035-.586-.055-13.225-1.383-25.461-6.12-35.86-13.33 4.023-11.192 12.109-20.285 22.242-25.816a49.039 49.039 0 0 0 21.718 5.053 49.06 49.06 0 0 0 22.933-5.668 47.722 47.722 0 0 1 22.753 25.201c-10.75 7.897-23.6 13.09-37.549 14.555zM42.935 78.056c0-.369.019-.733.028-1.099-.024-.008-.058-.013-.078-.022.588-22.812 19.274-41.198 42.206-41.282.502.003 1.004.01 1.503.031h.007c2.227.089 4.417.356 6.554.783 17.454 3.291 31.123 17.284 33.917 34.908l.032-.015c.346 2.177.531 4.406.531 6.679 0 23.373-19.015 42.388-42.388 42.388-21.167 0-38.758-15.594-41.892-35.896.019.006.052.009.076.015a42.598 42.598 0 0 1-.496-6.49zm93.667 64.315a54.702 54.702 0 0 0-21.705-24.862c11.978-9.02 19.738-23.355 19.738-39.47 0-26.653-21.224-48.429-47.657-49.346h-.016c-.571-.02-1.14-.044-1.715-.044-.054 0-.107.004-.16.004-.064 0-.128-.004-.193-.004-15.513 0-29.781 7.107-39.145 19.499-6.471 8.563-9.892 18.778-9.892 29.538 0 .072.004.143.004.215 0 .046-.004.091-.004.138 0 .213.014.423.016.636.005.208.004.418.011.626l.026.83c.008.171.008.344.017.514l.024.749.035.017c1.031 15.212 8.979 28.557 20.716 36.904-9.364 6.04-16.896 14.854-21.205 25.448-16.862-14.201-27.603-35.45-27.603-59.169 0-42.652 34.701-77.352 77.353-77.352 42.651 0 77.352 34.7 77.352 77.352 0 22.956-10.063 43.598-25.997 57.777z" fill="#D6D8D8"/></g></svg>