<svg width="170" height="170" viewBox="0 0 170 170" xmlns="http://www.w3.org/2000/svg"><title>Imported Layers</title><g fill="none" fill-rule="evenodd"><path d="M107.512 118.255c-6.277 3.884-13.918 6.171-22.168 6.171-8.029 0-15.485-2.16-21.665-5.855a51.54 51.54 0 0 0-17.598 13.907c10.969 8.643 24.814 13.8 39.863 13.8 15.05 0 28.894-5.157 39.864-13.8a51.515 51.515 0 0 0-18.296-14.223" fill="#E7EBEB"/><path d="M169.204 85.093c0-46.512-37.84-84.352-84.352-84.352S.5 38.581.5 85.093c0 26.843 12.619 50.78 32.22 66.24l-.03.1 1.974 1.463c12.178 9.029 26.274 14.493 41.192 16.064.288.03.576.057.864.085 1.035.098 2.073.177 3.115.238.343.02.685.044 1.03.061 1.324.061 2.652.101 3.987.101 1.358 0 2.709-.04 4.056-.103.319-.015.635-.04.953-.059a83.21 83.21 0 0 0 3.987-.324c15.709-1.645 30.441-7.588 43.03-17.465l1.934-1.517-.028-.085c18.575-15.485 30.42-38.782 30.42-64.799zm-76.215 76.921c-.189.02-.378.038-.567.056a77.803 77.803 0 0 1-3.036.231c-.287.017-.574.037-.862.051-1.217.057-2.44.093-3.672.093-1.213 0-2.418-.036-3.618-.092-.301-.014-.601-.033-.901-.051a77.613 77.613 0 0 1-2.994-.228c-.196-.019-.392-.035-.587-.055-13.225-1.383-25.46-6.12-35.86-13.33 4.024-11.192 12.11-20.285 22.243-25.815a49.05 49.05 0 0 0 21.717 5.052 49.057 49.057 0 0 0 22.933-5.668 47.728 47.728 0 0 1 22.754 25.201c-10.75 7.897-23.601 13.09-37.55 14.555zM54.242 86.745a37.824 37.824 0 0 0 31.471-16.766 40.03 40.03 0 0 0 22.061 6.647c6.678 0 13.143-1.638 18.936-4.767.346 2.177.531 4.406.531 6.679 0 23.373-19.016 42.388-42.389 42.388-21.166 0-38.758-15.594-41.892-35.896a37.709 37.709 0 0 0 11.282 1.715zm-11.751-9.311c.587-22.812 19.273-41.198 42.205-41.282.503.003 1.004.011 1.503.031h.008c17.556.707 32.822 12.283 38.253 28.91-5.043 2.973-10.762 4.533-16.686 4.533a32.983 32.983 0 0 1-20.866-7.454l-3.314-2.718-2.001 3.791a30.86 30.86 0 0 1-27.351 16.5c-4.091 0-8.034-.776-11.751-2.311zm93.716 65.436a54.696 54.696 0 0 0-21.705-24.862c11.978-9.02 19.739-23.355 19.739-39.47 0-26.653-21.225-48.429-47.658-49.346h-.016c-.57-.02-1.14-.044-1.715-.044-.054 0-.106.004-.16.004-.064 0-.128-.004-.192-.004-15.514 0-29.782 7.107-39.146 19.499-6.471 8.563-9.891 18.778-9.891 29.538 0 .072.003.143.003.215 0 .046-.003.091-.003.138 0 .213.013.423.016.636.004.208.003.418.01.626l.027.83c.007.171.008.344.016.514l.025.749.034.017c1.032 15.212 8.979 28.557 20.716 36.904-9.363 6.04-16.895 14.854-21.204 25.447C18.241 130.061 7.5 108.812 7.5 85.093c0-42.652 34.7-77.352 77.352-77.352s77.352 34.7 77.352 77.352c0 22.956-10.063 43.598-25.997 57.777z" fill="#D6D8D8"/></g></svg>