<svg width="170" height="169" viewBox="0 0 170 169" xmlns="http://www.w3.org/2000/svg"><title>Imported Layers</title><g fill="none" fill-rule="evenodd"><path d="M107.381 118.025a45.662 45.662 0 0 1-22.529 5.915 45.673 45.673 0 0 1-22.172-5.71 51.558 51.558 0 0 0-17.297 13.762c10.97 8.643 24.814 13.8 39.864 13.8 15.049 0 28.894-5.157 39.863-13.8a51.543 51.543 0 0 0-17.729-13.967" fill="#E7EBEB"/><path d="M85.247.255C38.735.255.894 38.095.894 84.607c0 42.517 31.626 77.768 72.585 83.513 3.553.542 7.179.839 10.887.839.163 0 .325-.009.488-.01.132.001.261.01.393.01 46.511 0 84.352-37.84 84.352-84.352S131.758.255 85.247.255zM59.024 72.811c10.06 0 19.404-4.035 26.223-11.199 6.818 7.164 16.162 11.199 26.222 11.199 5.318 0 10.52-1.167 15.283-3.382.578 2.785.884 5.669.884 8.623 0 23.373-19.016 42.388-42.389 42.388-23.374 0-42.389-19.015-42.389-42.388 0-2.954.306-5.838.884-8.623a36.206 36.206 0 0 0 15.282 3.382zM45.769 62.645C51.427 48.197 64.786 37.584 80.776 35.9l.387-.037c.525-.05 1.053-.09 1.583-.121.173-.01.345-.021.519-.029.657-.03 1.317-.05 1.982-.05.664 0 1.324.02 1.981.05.174.008.346.019.519.029a43.478 43.478 0 0 1 1.97.158c15.99 1.684 29.349 12.297 35.008 26.745a29.225 29.225 0 0 1-13.256 3.166c-9.295 0-17.833-4.269-23.424-11.711l-2.798-3.724-2.799 3.725c-5.591 7.441-14.128 11.71-23.424 11.71a29.217 29.217 0 0 1-13.255-3.166zm81.867 40.719v25.912a54.764 54.764 0 0 0-13.146-11.455 49.762 49.762 0 0 0 13.146-14.457zm-71.343 14.663a55.686 55.686 0 0 0-13.435 11.872v-26.535a49.768 49.768 0 0 0 13.435 14.663zm6.779 4.135a49.075 49.075 0 0 0 22.175 5.278 49.06 49.06 0 0 0 22.492-5.441 47.713 47.713 0 0 1 19.897 19.75v.036h.019a47.792 47.792 0 0 1 2.417 5.235c-13.181 9.685-28.748 14.827-45.207 14.929-16.477-.08-31.742-5.348-44.269-14.238 4.139-11.118 12.296-20.123 22.476-25.549zm72.885 20.78a57.51 57.51 0 0 0-1.321-2.897V78.367h-.008c0-.105.008-.209.008-.315 0-4.235-.537-8.346-1.544-12.271l.071-.045-.81-2.566c-5.746-18.207-21.157-31.137-39.578-33.934l-.065-.009a49.569 49.569 0 0 0-4.498-.467c-.21-.013-.418-.028-.628-.038a50.378 50.378 0 0 0-2.337-.059c-.784 0-1.562.023-2.338.059-.21.01-.418.025-.628.038a50.122 50.122 0 0 0-4.498.467c-.021.003-.043.005-.064.009C59.297 32.033 43.887 44.963 38.14 63.17l-.81 2.566.072.046a49.304 49.304 0 0 0-1.544 12.27c0 .106.007.21.008.315h-.008v62.571a53.232 53.232 0 0 0-1.011 2.274C18.363 129.016 7.894 108.017 7.894 84.607c0-42.652 34.701-77.352 77.353-77.352 42.651 0 77.352 34.7 77.352 77.352 0 23.262-10.337 44.143-26.642 58.335z" fill="#D6D8D8"/></g></svg>